<?xml version="1.0" encoding="utf-8"?>
<!-- Generator: Adobe Illustrator 17.0.0, SVG Export Plug-In . SVG Version: 6.00 Build 0)  -->
<!DOCTYPE svg PUBLIC "-//W3C//DTD SVG 1.1//EN" "http://www.w3.org/Graphics/SVG/1.1/DTD/svg11.dtd">
<svg version="1.1" id="twittlerbird" xmlns="http://www.w3.org/2000/svg" xmlns:xlink="http://www.w3.org/1999/xlink" x="0px"
	 y="0px" width="216px" height="90px" viewBox="0 0 216 90" enable-background="new 0 0 216 90" xml:space="preserve">
<path fill="#2784BA" d="M100.015,54.64c0,1.203,1.917,2.387,2.027,3.553c1.166-0.146,2.331-0.218,3.498-0.218h2.842
	c0.691,0,1.33-0.036,1.913-0.11l-0.164,3.935l-7.979-0.218l0.273,18.855c-0.655,0.291-1.222,0.437-1.694,0.437
	c-1.822,0-2.733-2.022-2.733-6.066l0.109-8.745c0-1.384-0.128-2.568-0.382-3.553h-8.471l-0.11-3.771h8.198l-0.067-3.356"/>
<path fill="#2784BA" d="M124.187,54.956c0,1.203,0.055,2.387,0.164,3.553c1.166-0.146,2.331-0.218,3.498-0.218h2.842
	c0.691,0,1.33-0.036,1.913-0.11l-0.164,3.935l-7.979-0.218l0.273,18.855c-0.655,0.291-1.222,0.437-1.694,0.437
	c-1.822,0-2.733-2.022-2.733-6.066l0.109-8.745c0-1.384-0.128-2.568-0.382-3.553h-8.471l-0.11-3.771h8.198l1.206-3.553"/>
<g>
	<polyline fill="none" stroke="#F6D828" stroke-width="4" stroke-miterlimit="10" points="99,45.272 99,56.086 95.138,57.888 	"/>
	<line fill="none" stroke="#F6D828" stroke-width="4" stroke-miterlimit="10" x1="99.209" y1="54.951" x2="103.925" y2="58.532"/>
</g>
<g>
	<polyline fill="none" stroke="#F6D828" stroke-width="4" stroke-miterlimit="10" points="120.273,44.454 120.273,55.571 
		117.344,58.509 	"/>
	<line fill="none" stroke="#F6D828" stroke-width="4" stroke-miterlimit="10" x1="120.43" y1="53.618" x2="126.524" y2="58.146"/>
</g>
<path fill="#2784BA" d="M29.941,75.83l-0.357-8.737c-0.074-1.382-0.265-2.558-0.571-3.527l-8.459,0.452l-0.31-3.76l8.186-0.437
	l-0.752-14.08c0.092-0.333,0.293-0.673,0.602-1.018c0.482-0.536,0.896-0.814,1.242-0.832c0.345-0.019,0.647,0.002,0.907,0.061
	c0.258,0.06,0.544,0.299,0.859,0.72c0.709,2.37,1.195,5.975,1.453,10.814c0.064,1.2,0.182,2.38,0.353,3.539
	c1.156-0.207,2.316-0.343,3.481-0.405l2.837-0.151c0.691-0.037,1.325-0.106,1.905-0.211l0.046,3.938l-7.98,0.207l1.278,18.813
	c-0.639,0.326-1.196,0.502-1.668,0.527C31.174,81.839,30.157,79.868,29.941,75.83z"/>
<path fill="#2784BA" d="M61.858,65.919c-0.802,2.66-1.467,5.119-1.995,7.378c-0.529,2.26-1.048,4.136-1.558,5.629
	c-0.802,2.149-1.713,3.224-2.733,3.224c-0.547,0-1.167-0.255-1.858-0.765c-1.676-1.784-4.044-5.739-7.104-11.86
	c-2.988-5.975-4.481-9.709-4.481-11.203c0-0.656,0.2-1.066,0.601-1.23c0.401-0.164,0.856-0.173,1.366-0.027
	c1.238,0.365,2.113,0.929,2.623,1.694c0.254,0.365,0.565,1.002,0.929,1.913l1.366,3.389c1.53,3.826,3.042,7.324,4.536,10.493
	c0.801-1.238,1.566-2.842,2.295-4.809l1.694-4.7c1.456-4.117,2.769-6.212,3.935-6.285c0.911-0.583,3.643,2.642,8.198,9.673
	c1.931,2.988,3.133,4.773,3.607,5.356c0.328,0,0.719-1.093,1.175-3.279c0.455-2.186,0.856-4.034,1.202-5.547
	c0.346-1.511,0.774-2.924,1.285-4.236c1.203-3.061,2.586-4.591,4.154-4.591c0.51,0,0.865,0.173,1.066,0.52
	c0.2,0.347,0.3,0.628,0.3,0.847s0,0.383,0,0.492c-0.438,1.24-0.893,2.651-1.366,4.236c-0.474,1.585-0.975,3.206-1.503,4.864
	c-0.529,1.658-1.057,3.298-1.585,4.919c-0.529,1.622-1.047,3.088-1.558,4.399c-1.202,2.842-2.205,4.372-3.006,4.591
	c-0.619,0.291-1.622-0.419-3.006-2.131c-0.62-0.801-1.276-1.748-1.968-2.842c-0.692-1.093-1.421-2.222-2.186-3.389
	C64.426,69.727,62.951,67.486,61.858,65.919z"/>
<path fill="#2784BA" d="M82.06,47.884c0-1.275,0.746-1.913,2.24-1.913c0.984,0,1.785,0.218,2.405,0.656
	c0.11,0.401,0.164,0.793,0.164,1.175c0,0.383-0.146,0.757-0.438,1.12c-0.292,0.365-0.729,0.547-1.312,0.547s-1.166-0.137-1.748-0.41
	C82.789,48.786,82.352,48.395,82.06,47.884z M87.143,55.317c0.473,6.814,0.875,14.701,1.203,23.664
	c-0.218,1.13-1.093,1.694-2.623,1.694c-0.402,0-0.812-0.082-1.23-0.246c-0.419-0.164-0.683-0.391-0.793-0.683V55.317H87.143z"/>
<path fill="#2784BA" d="M133.764,59.798c-0.073-1.968-0.146-3.725-0.218-5.274c-0.073-1.548-0.119-2.696-0.137-3.443
	c-0.019-0.746-0.32-2.577-0.902-5.492c0.328-0.438,0.646-0.856,0.956-1.257c0.309-0.4,0.756-0.601,1.339-0.601
	c1.275,0,2.259,5.375,2.951,16.122c0.364,6.23,0.547,12.461,0.547,18.691c0,1.676-1.166,2.513-3.498,2.513l-0.437-0.055
	c0-1.894-0.055-4.318-0.164-7.269c-0.11-2.951-0.191-5.519-0.246-7.706S133.837,61.765,133.764,59.798z"/>
<path fill="#2784BA" d="M150.51,77.177c3.206,0,8.035-1.456,14.483-4.372c0.401,0,0.728,0.137,0.984,0.41
	c0.254,0.273,0.382,0.592,0.382,0.956c-1.458,2.478-4.245,4.409-8.362,5.793c-4.118,1.384-7.962,1.621-11.531,0.711
	c-4.044-1.056-6.504-3.334-7.378-6.832c-0.074-0.691-0.11-1.621-0.11-2.788c0-1.166,0.3-2.705,0.902-4.618
	c0.601-1.913,1.631-3.725,3.088-5.438c1.456-1.712,3.17-3.061,5.137-4.044c1.968-0.983,4.062-1.475,6.285-1.475
	c2.113,0,4.481,0.729,7.105,2.186c1.238,0.692,2.222,1.475,2.951,2.35c0.728,0.875,1.093,1.768,1.093,2.678
	c0,0.255-0.019,0.511-0.055,0.765c-0.074,2.223-1.148,3.626-3.224,4.208c-0.911,0.255-1.968,0.383-3.17,0.383l-7.87-0.328
	c-2.623,0-4.628,0.565-6.011,1.694c-0.802,0.62-1.366,1.549-1.694,2.788C144.425,75.52,146.758,77.177,150.51,77.177z
	 M160.266,60.29c-0.82-0.583-1.667-1.001-2.541-1.257c-0.875-0.254-1.604-0.383-2.186-0.383c-0.583,0-1.53,0.191-2.842,0.574
	c-1.312,0.383-2.478,0.812-3.498,1.285c-2.514,1.167-3.771,2.387-3.771,3.661c2.915,0.255,5.101,0.383,6.559,0.383
	c4.044,0,6.777-0.346,8.198-1.038c0.875-0.364,1.312-0.82,1.312-1.366C161.496,61.492,161.086,60.874,160.266,60.29z"/>
<path fill="#2784BA" d="M193.939,61.055c-1.53-1.093-3.498-1.64-5.902-1.64c-2.26,0-4.354,0.419-6.284,1.257
	c-3.644,1.53-6.14,3.498-7.488,5.902c-0.583,1.093-0.875,2.259-0.875,3.498c0,0.218,0,0.829,0,1.831s0.182,2.35,0.547,4.044
	c0.364,1.694,0.547,3.416,0.547,5.164c-0.765,0.036-1.385,0.128-1.858,0.273c-0.474,0.145-0.875,0.218-1.202,0.218
	s-0.61-0.146-0.847-0.438c-0.238-0.291-0.502-0.856-0.793-1.694c-0.037-0.218-0.11-0.838-0.218-1.858
	c-0.11-1.019-0.246-2.259-0.41-3.716c-0.164-1.457-0.346-3.051-0.547-4.782c-0.2-1.73-0.392-3.434-0.574-5.11
	c-0.402-3.643-0.711-6.32-0.929-8.034c0-0.875,0.637-1.312,1.913-1.312c0.765,0,1.366,0.319,1.803,0.956
	c0.437,0.638,0.783,1.366,1.038,2.186c0.254,0.82,0.428,1.631,0.52,2.432c0.091,0.802,0.173,1.366,0.246,1.694
	c4.809-4.299,10.784-6.449,17.926-6.449c0.801,0,1.64,0.019,2.513,0.055c0.218-0.036,0.492-0.055,0.82-0.055
	s0.656,0.218,0.983,0.656c0.401,0.511,0.601,1.13,0.601,1.858C195.469,59.817,194.959,60.837,193.939,61.055z"/>
<path fill="#55C2ED" d="M131.87,32.659c0,0-0.286-0.814-0.286-1.52c0-8.059-6.041-14.947-13.597-17.759
	c3.195-0.726,7.327-2.522,10.163-6.915c0,0-4.318-2.369-14.989,4.059c1.609-1.353,3.304-3.613,2.596-6.862
	c0,0-6.31,1.281-8.17,8.575c-9.556,1.299-18.746,8.465-18.746,17.998c0,0.826,0.077,1.638,0.209,2.437l-0.01-0.013
	c0,0-3.962,6.757-0.199,10.068c0,0,1.523,1.635,4.048-1.897c4.222,5.135,11.137,8.52,17.774,8.52c6.832,0,13.579-3.209,17.492-8.332
	c2.444,3.285,3.912,1.71,3.912,1.71C135.833,39.417,131.87,32.659,131.87,32.659z"/>
<circle fill="#FFFFFF" cx="101.278" cy="28.268" r="7.428"/>
<circle fill="#FFFFFF" cx="118.343" cy="26.461" r="6.291"/>
<circle fill="#3F6EAD" cx="99.371" cy="27.647" r="3.209"/>
<circle fill="#3F6EAD" cx="118.378" cy="24.97" r="3.209"/>
<circle fill="#EAF0F7" cx="97.831" cy="26.376" r="1.065"/>
<circle fill="#EAF0F7" cx="118.443" cy="23.966" r="1.065"/>
<path fill="#F8ED3A" d="M111.021,33.563c0,0-3.909,0.332-3.209,4.684c0,0-0.147,0.959,2.471,2.914c0,0,1.291-0.332,4.094-2.84
	C114.377,38.321,114.93,33.489,111.021,33.563z"/>
</svg>
