<?xml version="1.0" encoding="utf-8"?>
<!-- Generator: Adobe Illustrator 17.0.0, SVG Export Plug-In . SVG Version: 6.00 Build 0)  -->
<!DOCTYPE svg PUBLIC "-//W3C//DTD SVG 1.1//EN" "http://www.w3.org/Graphics/SVG/1.1/DTD/svg11.dtd">
<svg version="1.1" id="twittlerbird" xmlns="http://www.w3.org/2000/svg" xmlns:xlink="http://www.w3.org/1999/xlink" x="0px" y="0px"
	 width="216px" height="90px" viewBox="0 0 216 110" enable-background="new 0 0 216 107.333" xml:space="preserve">
<path fill="#488DCB" d="M98.241,66.782c0,1.47,2.343,2.917,2.477,4.342c1.425-0.178,2.849-0.267,4.275-0.267h3.474
	c0.845,0,1.625-0.044,2.338-0.134l-0.201,4.809l-9.752-0.267l0.334,23.045c-0.801,0.356-1.493,0.534-2.07,0.534
	c-2.227,0-3.34-2.471-3.34-7.414l0.133-10.688c0-1.692-0.157-3.139-0.467-4.342H85.088l-0.134-4.609h10.02l-0.082-4.102"/>
<path fill="#488DCB" d="M127.784,67.169c0,1.47,0.067,2.917,0.201,4.342c1.425-0.178,2.849-0.267,4.275-0.267h3.474
	c0.845,0,1.625-0.044,2.338-0.134l-0.201,4.809l-9.752-0.267l0.334,23.045c-0.801,0.356-1.493,0.534-2.07,0.534
	c-2.227,0-3.34-2.471-3.34-7.414l0.133-10.688c0-1.692-0.157-3.139-0.467-4.342h-10.354l-0.134-4.609h10.02l1.474-4.342"/>
<g>
	<polyline fill="none" stroke="#F6D828" stroke-width="4" stroke-miterlimit="10" points="97,55.333 97,68.549 92.28,70.752 	"/>
	<line fill="none" stroke="#F6D828" stroke-width="4" stroke-miterlimit="10" x1="97.255" y1="67.162" x2="103.019" y2="71.539"/>
</g>
<g>
	<polyline fill="none" stroke="#F6D828" stroke-width="4" stroke-miterlimit="10" points="123,54.333 123,67.92 119.42,71.511 	"/>
	<line fill="none" stroke="#F6D828" stroke-width="4" stroke-miterlimit="10" x1="123.192" y1="65.533" x2="130.641" y2="71.067"/>
</g>
<path fill="#488DCB" d="M12.595,92.681l-0.436-10.679c-0.09-1.689-0.324-3.127-0.698-4.311L1.122,78.243l-0.379-4.595l10.005-0.534
	L9.829,55.905c0.112-0.407,0.358-0.822,0.736-1.244c0.589-0.655,1.095-0.995,1.518-1.017c0.422-0.023,0.791,0.003,1.108,0.074
	c0.315,0.073,0.665,0.366,1.05,0.88c0.867,2.897,1.46,7.303,1.776,13.217c0.078,1.467,0.222,2.909,0.432,4.325
	c1.413-0.253,2.831-0.419,4.255-0.495l3.468-0.185c0.844-0.045,1.62-0.13,2.328-0.258l0.056,4.813l-9.753,0.253l1.562,22.994
	c-0.781,0.398-1.462,0.613-2.039,0.644C14.102,100.026,12.859,97.617,12.595,92.681z"/>
<path fill="#488DCB" d="M51.604,80.568c-0.98,3.251-1.793,6.257-2.438,9.017c-0.646,2.762-1.281,5.055-1.904,6.88
	c-0.98,2.627-2.094,3.941-3.34,3.941c-0.668,0-1.426-0.312-2.271-0.935c-2.049-2.181-4.943-7.014-8.683-14.495
	c-3.652-7.303-5.477-11.867-5.477-13.693c0-0.802,0.244-1.303,0.735-1.503c0.49-0.2,1.046-0.211,1.67-0.033
	c1.513,0.446,2.582,1.136,3.206,2.071c0.311,0.446,0.69,1.225,1.136,2.338l1.67,4.142c1.87,4.676,3.718,8.951,5.544,12.825
	c0.979-1.513,1.914-3.474,2.805-5.878l2.071-5.744c1.78-5.032,3.384-7.592,4.809-7.682c1.113-0.712,4.453,3.229,10.02,11.823
	c2.36,3.652,3.829,5.834,4.409,6.546c0.401,0,0.879-1.336,1.436-4.008c0.556-2.672,1.046-4.931,1.469-6.78
	c0.423-1.847,0.946-3.574,1.57-5.177c1.47-3.741,3.161-5.611,5.077-5.611c0.623,0,1.057,0.212,1.303,0.635
	c0.244,0.424,0.367,0.768,0.367,1.035c0,0.267,0,0.468,0,0.601c-0.535,1.515-1.092,3.24-1.67,5.177
	c-0.579,1.937-1.192,3.919-1.837,5.945c-0.646,2.027-1.292,4.031-1.937,6.012c-0.646,1.982-1.28,3.774-1.904,5.377
	c-1.469,3.474-2.695,5.344-3.674,5.611c-0.757,0.356-1.982-0.512-3.674-2.605c-0.758-0.979-1.559-2.137-2.405-3.473
	c-0.846-1.336-1.737-2.716-2.672-4.142C54.743,85.222,52.94,82.483,51.604,80.568z"/>
<path fill="#488DCB" d="M76.296,58.525c0-1.558,0.912-2.338,2.738-2.338c1.203,0,2.182,0.267,2.939,0.802
	c0.134,0.49,0.201,0.969,0.201,1.436c0,0.468-0.178,0.925-0.535,1.369c-0.357,0.446-0.891,0.668-1.603,0.668
	c-0.712,0-1.425-0.167-2.137-0.501C77.186,59.627,76.652,59.149,76.296,58.525z M82.508,67.61c0.578,8.328,1.069,17.968,1.47,28.923
	c-0.267,1.381-1.336,2.071-3.206,2.071c-0.491,0-0.992-0.1-1.503-0.301c-0.512-0.201-0.835-0.478-0.969-0.835V67.61H82.508z"/>
<path fill="#488DCB" d="M139.489,73.087c-0.089-2.405-0.178-4.553-0.267-6.446c-0.089-1.892-0.145-3.295-0.167-4.208
	c-0.023-0.912-0.391-3.15-1.102-6.713c0.401-0.535,0.79-1.046,1.169-1.536c0.378-0.489,0.924-0.735,1.637-0.735
	c1.558,0,2.761,6.569,3.607,19.705c0.445,7.615,0.668,15.23,0.668,22.845c0,2.049-1.425,3.072-4.275,3.072l-0.534-0.067
	c0-2.315-0.067-5.277-0.201-8.884c-0.134-3.607-0.234-6.746-0.301-9.418C139.656,78.03,139.578,75.491,139.489,73.087z"/>
<path fill="#488DCB" d="M159.957,94.328c3.918,0,9.82-1.78,17.701-5.344c0.49,0,0.89,0.167,1.203,0.501
	c0.311,0.334,0.467,0.724,0.467,1.169c-1.782,3.029-5.188,5.389-10.22,7.08c-5.033,1.692-9.731,1.981-14.094,0.869
	c-4.943-1.291-7.949-4.075-9.017-8.35c-0.09-0.845-0.134-1.981-0.134-3.407c0-1.425,0.367-3.306,1.102-5.644
	c0.735-2.338,1.993-4.553,3.774-6.646c1.78-2.093,3.874-3.741,6.279-4.943c2.405-1.202,4.965-1.803,7.682-1.803
	c2.582,0,5.477,0.891,8.684,2.672c1.513,0.846,2.716,1.803,3.607,2.872c0.89,1.069,1.336,2.161,1.336,3.273
	c0,0.312-0.023,0.624-0.067,0.935c-0.09,2.717-1.403,4.432-3.941,5.143c-1.114,0.312-2.405,0.468-3.874,0.468l-9.619-0.401
	c-3.206,0-5.656,0.691-7.347,2.071c-0.98,0.758-1.67,1.893-2.071,3.407C152.52,92.302,155.371,94.328,159.957,94.328z
	 M171.881,73.688c-1.002-0.712-2.037-1.224-3.106-1.536c-1.069-0.311-1.96-0.468-2.672-0.468c-0.712,0-1.87,0.234-3.473,0.701
	c-1.603,0.468-3.029,0.992-4.275,1.57c-3.073,1.426-4.609,2.917-4.609,4.475c3.563,0.312,6.234,0.468,8.016,0.468
	c4.943,0,8.283-0.423,10.02-1.269c1.069-0.445,1.603-1.002,1.603-1.67C173.384,75.157,172.883,74.401,171.881,73.688z"/>
<path fill="#488DCB" d="M213.037,74.623c-1.87-1.336-4.275-2.004-7.214-2.004c-2.762,0-5.322,0.512-7.681,1.536
	c-4.454,1.87-7.505,4.275-9.152,7.214c-0.712,1.336-1.069,2.761-1.069,4.275c0,0.267,0,1.013,0,2.238
	c0,1.225,0.222,2.872,0.668,4.943c0.445,2.071,0.668,4.175,0.668,6.312c-0.935,0.044-1.693,0.156-2.271,0.334
	c-0.579,0.177-1.069,0.267-1.469,0.267s-0.746-0.179-1.035-0.535c-0.291-0.356-0.613-1.046-0.969-2.071
	c-0.045-0.267-0.134-1.024-0.267-2.271c-0.134-1.246-0.301-2.761-0.501-4.542c-0.2-1.781-0.423-3.729-0.668-5.845
	c-0.245-2.115-0.479-4.197-0.701-6.246c-0.491-4.452-0.869-7.725-1.135-9.819c0-1.069,0.779-1.603,2.338-1.603
	c0.935,0,1.67,0.39,2.204,1.169c0.534,0.78,0.957,1.67,1.269,2.672c0.311,1.002,0.523,1.993,0.635,2.972
	c0.111,0.98,0.211,1.67,0.301,2.071c5.878-5.254,13.181-7.882,21.91-7.882c0.979,0,2.004,0.023,3.072,0.067
	c0.267-0.044,0.601-0.067,1.002-0.067c0.401,0,0.802,0.267,1.202,0.802c0.49,0.624,0.735,1.381,0.735,2.271
	C214.907,73.11,214.283,74.356,213.037,74.623z"/>
<path fill="#55C2ED" d="M137.174,39.917c0,0-0.349-0.995-0.349-1.858c0-9.85-7.384-18.269-16.618-21.705
	c3.905-0.887,8.955-3.082,12.421-8.452c0,0-5.277-2.896-18.32,4.961c1.967-1.654,4.038-4.416,3.173-8.387
	c0,0-7.712,1.566-9.985,10.481c-11.68,1.588-22.912,10.346-22.912,21.998c0,1.01,0.094,2.002,0.255,2.978l-0.012-0.016
	c0,0-4.843,8.258-0.243,12.305c0,0,1.861,1.998,4.948-2.318c5.16,6.276,13.612,10.413,21.724,10.413
	c8.35,0,16.596-3.922,21.379-10.184c2.987,4.015,4.781,2.09,4.781,2.09C142.018,48.176,137.174,39.917,137.174,39.917z"/>
<circle fill="#FFFFFF" cx="99.784" cy="34.55" r="9.079"/>
<circle fill="#FFFFFF" cx="120.642" cy="32.341" r="7.689"/>
<circle fill="#2A3988" cx="97.454" cy="33.791" r="3.922"/>
<circle fill="#2A3988" cx="120.684" cy="30.519" r="3.922"/>
<circle fill="#ADC7DA" cx="95.571" cy="32.237" r="1.302"/>
<circle fill="#ADC7DA" cx="120.764" cy="29.292" r="1.302"/>
<path fill="#F8ED3A" d="M111.692,41.021c0,0-4.778,0.406-3.922,5.725c0,0-0.18,1.172,3.02,3.561c0,0,1.578-0.406,5.004-3.471
	C115.794,46.837,116.47,40.931,111.692,41.021z"/>
</svg>
